# xmcd CD database file
#
# Track frame offsets:
#	150
#	25655
#	47142
#
# Disc length: 966 seconds
#
# Revision: 0
# Processed by: cddbd v1.5PL3 Copyright (c) Steve Scherf et al.
# Submitted via: CDex 1.51
#
DISCID=1b03c403
DTITLE=CHAGE&ASKA - LOVE SONG
DYEAR=1992
DGENRE=JPop
TTITLE0=LOVE SONG
TTITLE1=ロマンシング ヤード
TTITLE2=LOVE SONG (オリジナルカラオケ)
EXTD=YEAR: 1992
EXTT0=
EXTT1=
EXTT2=
PLAYORDER=
